# xmcd
#
# Track frame offsets: 
#        150
#        10913
#        23137
#        34753
#        48449
#        58536
#        69024
#        80764
#        93670
#        107101
#        118400
#        129750
#        143433
#        164373
#        181445
#        193043
#        209735
#        220808
#
# Disc length: 3104 seconds
#
# Revision: 0
# Processed by: cddbd v1.5.2PL0 Copyright (c) Steve Scherf et al.
# Submitted via: ExactAudioCopy v0.99pb5
#
DISCID=000c1e12
DTITLE=Various Artist - Smithsonian Collection of Classic Country Music Disc 
DTITLE=06
DYEAR=1981
DGENRE=Country
TTITLE0=Webb Pierce - There Stands the Glass
TTITLE1=Johnny Cash - I Walk the Line
TTITLE2=Tennessee Ernie Ford - Sixteen Tons
TTITLE3=Everly Brothers - Down in the Willow Garden
TTITLE4=Chet Atkins - Country Gentleman
TTITLE5=Jim Reeves - He'll Have To Go
TTITLE6=Ray Price - Crazy Arms
TTITLE7=Bobby Helms - Fraulein
TTITLE8=Ray Price - City Lights
TTITLE9=Louvin Brothers - When I Stop Dreaming
TTITLE10=Johnny Horton - The Battle of New Orleans
TTITLE11=Lefty Frizzell - Long Black Veil
TTITLE12=Marty Robbins - El Paso
TTITLE13=Louvin Brothers - Knoxville Girl
TTITLE14=Rusty and Doug - Louisiana Man
TTITLE15=Patsy Cline - Faded Love
TTITLE16=Buck Owens - Excuse Me (I Think I've Got a Heartache)
TTITLE17=George Jones and Melba Montgomery - We Must Have Been Out of 
TTITLE17=Our Minds
EXTD=
EXTT0=
EXTT1=
EXTT2=
EXTT3=
EXTT4=
EXTT5=
EXTT6=
EXTT7=
EXTT8=
EXTT9=
EXTT10=
EXTT11=
EXTT12=
EXTT13=
EXTT14=
EXTT15=
EXTT16=
EXTT17=
PLAYORDER=
